<?xml version="1.0" encoding="UTF-8" standalone="no"?>
<!DOCTYPE svg PUBLIC "-//W3C//DTD SVG 1.1//EN"
 "http://www.w3.org/Graphics/SVG/1.1/DTD/svg11.dtd">
<!-- Generated by graphviz version 12.1.1 (20240910.0053)
 -->
<!-- Title: INFRA Pages: 1 -->
<svg width="1716pt" height="512pt"
 viewBox="0.00 0.00 1715.60 512.00" xmlns="http://www.w3.org/2000/svg" xmlns:xlink="http://www.w3.org/1999/xlink">
<g id="graph0" class="graph" transform="scale(1 1) rotate(0) translate(4 508)">
<title>INFRA</title>
<polygon fill="white" stroke="none" points="-4,4 -4,-508 1711.6,-508 1711.6,4 -4,4"/>
<!-- vpn&#45;vpc1 -->
<g id="node1" class="node">
<title>vpn&#45;vpc1</title>
<ellipse fill="#e6e6e6" stroke="black" stroke-width="2" cx="924.39" cy="-36" rx="113.73" ry="36"/>
<text text-anchor="middle" x="924.39" y="-40.2" font-family="Arial" font-size="14.00">vpn&#45;vpc1</text>
<text text-anchor="middle" x="924.39" y="-23.4" font-family="Arial" font-size="14.00">(google_compute_network)</text>
</g>
<!-- vpn&#45;vpc2 -->
<g id="node2" class="node">
<title>vpn&#45;vpc2</title>
<ellipse fill="#e6e6e6" stroke="black" stroke-width="2" cx="665.39" cy="-144" rx="113.73" ry="36"/>
<text text-anchor="middle" x="665.39" y="-148.2" font-family="Arial" font-size="14.00">vpn&#45;vpc2</text>
<text text-anchor="middle" x="665.39" y="-131.4" font-family="Arial" font-size="14.00">(google_compute_network)</text>
</g>
<!-- vpn&#45;vpc1&#45;subnet&#45;1 -->
<g id="node3" class="node">
<title>vpn&#45;vpc1&#45;subnet&#45;1</title>
<ellipse fill="#e6e6e6" stroke="black" stroke-width="2" cx="924.39" cy="-144" rx="127.56" ry="36"/>
<text text-anchor="middle" x="924.39" y="-148.2" font-family="Arial" font-size="14.00">vpn&#45;vpc1&#45;subnet&#45;1</text>
<text text-anchor="middle" x="924.39" y="-131.4" font-family="Arial" font-size="14.00">(google_compute_subnetwork)</text>
</g>
<!-- vpn&#45;vpc1&#45;subnet&#45;1&#45;&gt;vpn&#45;vpc1 -->
<g id="edge1" class="edge">
<title>vpn&#45;vpc1&#45;subnet&#45;1&#45;&gt;vpn&#45;vpc1</title>
<path fill="none" stroke="black" d="M924.39,-107.7C924.39,-99.93 924.39,-91.57 924.39,-83.43"/>
<polygon fill="black" stroke="black" points="927.89,-83.66 924.39,-73.66 920.89,-83.66 927.89,-83.66"/>
</g>
<!-- vpn&#45;vpc2&#45;subnet&#45;1 -->
<g id="node4" class="node">
<title>vpn&#45;vpc2&#45;subnet&#45;1</title>
<ellipse fill="#e6e6e6" stroke="black" stroke-width="2" cx="404.39" cy="-252" rx="127.56" ry="36"/>
<text text-anchor="middle" x="404.39" y="-256.2" font-family="Arial" font-size="14.00">vpn&#45;vpc2&#45;subnet&#45;1</text>
<text text-anchor="middle" x="404.39" y="-239.4" font-family="Arial" font-size="14.00">(google_compute_subnetwork)</text>
</g>
<!-- vpn&#45;vpc2&#45;subnet&#45;1&#45;&gt;vpn&#45;vpc2 -->
<g id="edge2" class="edge">
<title>vpn&#45;vpc2&#45;subnet&#45;1&#45;&gt;vpn&#45;vpc2</title>
<path fill="none" stroke="black" d="M476.05,-221.89C510.11,-208.06 550.92,-191.49 585.92,-177.27"/>
<polygon fill="black" stroke="black" points="587.23,-180.52 595.18,-173.51 584.6,-174.03 587.23,-180.52"/>
</g>
<!-- vpc1&#45;firewall -->
<g id="node5" class="node">
<title>vpc1&#45;firewall</title>
<ellipse fill="#e6e6e6" stroke="black" stroke-width="2" cx="309.39" cy="-468" rx="110.39" ry="36"/>
<text text-anchor="middle" x="309.39" y="-472.2" font-family="Arial" font-size="14.00">vpc1&#45;firewall</text>
<text text-anchor="middle" x="309.39" y="-455.4" font-family="Arial" font-size="14.00">(google_compute_firewall)</text>
</g>
<!-- vpc1&#45;firewall&#45;&gt;vpn&#45;vpc1 -->
<g id="edge3" class="edge">
<title>vpc1&#45;firewall&#45;&gt;vpn&#45;vpc1</title>
<path fill="none" stroke="black" d="M289.31,-432.44C262.21,-380.73 222.22,-282.26 267.39,-216 328.03,-127.03 635.02,-74.04 807.07,-50.88"/>
<polygon fill="black" stroke="black" points="807.51,-54.35 816.96,-49.56 806.58,-47.41 807.51,-54.35"/>
</g>
<!-- vpn&#45;instance2 -->
<g id="node10" class="node">
<title>vpn&#45;instance2</title>
<path fill="#b7e0ff" stroke="black" stroke-width="2" d="M469.78,-396C469.78,-396 305,-396 305,-396 299,-396 293,-390 293,-384 293,-384 293,-336 293,-336 293,-330 299,-324 305,-324 305,-324 469.78,-324 469.78,-324 475.78,-324 481.78,-330 481.78,-336 481.78,-336 481.78,-384 481.78,-384 481.78,-390 475.78,-396 469.78,-396"/>
<text text-anchor="middle" x="387.39" y="-364.2" font-family="Arial" font-size="14.00">vpn&#45;instance2</text>
<text text-anchor="middle" x="387.39" y="-347.4" font-family="Arial" font-size="14.00">(google_compute_instance)</text>
</g>
<!-- vpc1&#45;firewall&#45;&gt;vpn&#45;instance2 -->
<g id="edge4" class="edge">
<title>vpc1&#45;firewall&#45;&gt;vpn&#45;instance2</title>
<path fill="none" stroke="black" d="M334.71,-432.58C341.05,-423.97 347.94,-414.61 354.59,-405.58"/>
<polygon fill="black" stroke="black" points="357.39,-407.68 360.49,-397.55 351.75,-403.53 357.39,-407.68"/>
</g>
<!-- vpc1&#45;firewall&#45;ssh -->
<g id="node6" class="node">
<title>vpc1&#45;firewall&#45;ssh</title>
<ellipse fill="#e6e6e6" stroke="black" stroke-width="2" cx="110.39" cy="-144" rx="110.39" ry="36"/>
<text text-anchor="middle" x="110.39" y="-148.2" font-family="Arial" font-size="14.00">vpc1&#45;firewall&#45;ssh</text>
<text text-anchor="middle" x="110.39" y="-131.4" font-family="Arial" font-size="14.00">(google_compute_firewall)</text>
</g>
<!-- vpc1&#45;firewall&#45;ssh&#45;&gt;vpn&#45;vpc1 -->
<g id="edge5" class="edge">
<title>vpc1&#45;firewall&#45;ssh&#45;&gt;vpn&#45;vpc1</title>
<path fill="none" stroke="black" d="M189.28,-118.54C204.16,-114.55 219.67,-110.81 234.39,-108 430.41,-70.54 661.78,-51.83 800.6,-43.29"/>
<polygon fill="black" stroke="black" points="800.81,-46.78 810.58,-42.68 800.38,-39.79 800.81,-46.78"/>
</g>
<!-- vpc2&#45;firewall -->
<g id="node7" class="node">
<title>vpc2&#45;firewall</title>
<ellipse fill="#e6e6e6" stroke="black" stroke-width="2" cx="936.39" cy="-360" rx="110.39" ry="36"/>
<text text-anchor="middle" x="936.39" y="-364.2" font-family="Arial" font-size="14.00">vpc2&#45;firewall</text>
<text text-anchor="middle" x="936.39" y="-347.4" font-family="Arial" font-size="14.00">(google_compute_firewall)</text>
</g>
<!-- vpc2&#45;firewall&#45;&gt;vpn&#45;vpc2 -->
<g id="edge6" class="edge">
<title>vpc2&#45;firewall&#45;&gt;vpn&#45;vpc2</title>
<path fill="none" stroke="black" d="M894.07,-326.27C880.85,-314.94 866.76,-301.65 855.39,-288 831.53,-259.37 839.88,-241.16 812.39,-216 794.7,-199.81 772.65,-186.57 751.05,-176.09"/>
<polygon fill="black" stroke="black" points="752.76,-173.03 742.21,-171.96 749.79,-179.37 752.76,-173.03"/>
</g>
<!-- vpn&#45;instance1 -->
<g id="node9" class="node">
<title>vpn&#45;instance1</title>
<path fill="#b7e0ff" stroke="black" stroke-width="2" d="M1040.78,-288C1040.78,-288 876,-288 876,-288 870,-288 864,-282 864,-276 864,-276 864,-228 864,-228 864,-222 870,-216 876,-216 876,-216 1040.78,-216 1040.78,-216 1046.78,-216 1052.78,-222 1052.78,-228 1052.78,-228 1052.78,-276 1052.78,-276 1052.78,-282 1046.78,-288 1040.78,-288"/>
<text text-anchor="middle" x="958.39" y="-256.2" font-family="Arial" font-size="14.00">vpn&#45;instance1</text>
<text text-anchor="middle" x="958.39" y="-239.4" font-family="Arial" font-size="14.00">(google_compute_instance)</text>
</g>
<!-- vpc2&#45;firewall&#45;&gt;vpn&#45;instance1 -->
<g id="edge7" class="edge">
<title>vpc2&#45;firewall&#45;&gt;vpn&#45;instance1</title>
<path fill="none" stroke="black" d="M943.72,-323.7C945.35,-315.84 947.1,-307.38 948.81,-299.15"/>
<polygon fill="black" stroke="black" points="952.18,-300.13 950.79,-289.62 945.33,-298.7 952.18,-300.13"/>
</g>
<!-- vpc2&#45;firewall&#45;ssh -->
<g id="node8" class="node">
<title>vpc2&#45;firewall&#45;ssh</title>
<ellipse fill="#e6e6e6" stroke="black" stroke-width="2" cx="660.39" cy="-252" rx="110.39" ry="36"/>
<text text-anchor="middle" x="660.39" y="-256.2" font-family="Arial" font-size="14.00">vpc2&#45;firewall&#45;ssh</text>
<text text-anchor="middle" x="660.39" y="-239.4" font-family="Arial" font-size="14.00">(google_compute_firewall)</text>
</g>
<!-- vpc2&#45;firewall&#45;ssh&#45;&gt;vpn&#45;vpc2 -->
<g id="edge8" class="edge">
<title>vpc2&#45;firewall&#45;ssh&#45;&gt;vpn&#45;vpc2</title>
<path fill="none" stroke="black" d="M662.05,-215.7C662.42,-207.93 662.82,-199.57 663.2,-191.43"/>
<polygon fill="black" stroke="black" points="666.69,-191.81 663.66,-181.65 659.69,-191.48 666.69,-191.81"/>
</g>
<!-- vpn&#45;instance1&#45;&gt;vpn&#45;vpc1&#45;subnet&#45;1 -->
<g id="edge9" class="edge">
<title>vpn&#45;instance1&#45;&gt;vpn&#45;vpc1&#45;subnet&#45;1</title>
<path fill="none" stroke="black" d="M947.07,-215.7C944.52,-207.75 941.77,-199.19 939.1,-190.87"/>
<polygon fill="black" stroke="black" points="942.51,-190.04 936.12,-181.58 935.85,-192.17 942.51,-190.04"/>
</g>
<!-- vpn&#45;instance2&#45;&gt;vpn&#45;vpc2&#45;subnet&#45;1 -->
<g id="edge10" class="edge">
<title>vpn&#45;instance2&#45;&gt;vpn&#45;vpc2&#45;subnet&#45;1</title>
<path fill="none" stroke="black" d="M393.05,-323.7C394.3,-315.93 395.64,-307.57 396.94,-299.43"/>
<polygon fill="black" stroke="black" points="400.39,-300.06 398.51,-289.64 393.47,-298.96 400.39,-300.06"/>
</g>
<!-- vpn1&#45;static&#45;ip -->
<g id="node11" class="node">
<title>vpn1&#45;static&#45;ip</title>
<ellipse fill="#e6e6e6" stroke="black" stroke-width="2" cx="1593.39" cy="-36" rx="114.21" ry="36"/>
<text text-anchor="middle" x="1593.39" y="-40.2" font-family="Arial" font-size="14.00">vpn1&#45;static&#45;ip</text>
<text text-anchor="middle" x="1593.39" y="-23.4" font-family="Arial" font-size="14.00">(google_compute_address)</text>
</g>
<!-- vpn2&#45;static&#45;ip -->
<g id="node12" class="node">
<title>vpn2&#45;static&#45;ip</title>
<ellipse fill="#e6e6e6" stroke="black" stroke-width="2" cx="1244.39" cy="-144" rx="114.21" ry="36"/>
<text text-anchor="middle" x="1244.39" y="-148.2" font-family="Arial" font-size="14.00">vpn2&#45;static&#45;ip</text>
<text text-anchor="middle" x="1244.39" y="-131.4" font-family="Arial" font-size="14.00">(google_compute_address)</text>
</g>
<!-- vpn1&#45;gateway -->
<g id="node13" class="node">
<title>vpn1&#45;gateway</title>
<ellipse fill="#e6e6e6" stroke="black" stroke-width="2" cx="1512.39" cy="-144" rx="134.24" ry="36"/>
<text text-anchor="middle" x="1512.39" y="-148.2" font-family="Arial" font-size="14.00">vpn1&#45;gateway</text>
<text text-anchor="middle" x="1512.39" y="-131.4" font-family="Arial" font-size="14.00">(google_compute_vpn_gateway)</text>
</g>
<!-- vpn1&#45;gateway&#45;&gt;vpn&#45;vpc1 -->
<g id="edge11" class="edge">
<title>vpn1&#45;gateway&#45;&gt;vpn&#45;vpc1</title>
<path fill="none" stroke="black" d="M1415.91,-118.6C1399.75,-114.84 1383.13,-111.16 1367.39,-108 1256.43,-85.75 1128.73,-65.89 1039.03,-52.87"/>
<polygon fill="black" stroke="black" points="1039.63,-49.42 1029.24,-51.45 1038.63,-56.35 1039.63,-49.42"/>
</g>
<!-- vpn1&#45;gateway&#45;&gt;vpn1&#45;static&#45;ip -->
<g id="edge12" class="edge">
<title>vpn1&#45;gateway&#45;&gt;vpn1&#45;static&#45;ip</title>
<path fill="none" stroke="black" d="M1538.91,-108.29C1545.69,-99.42 1553.07,-89.76 1560.15,-80.5"/>
<polygon fill="black" stroke="black" points="1562.87,-82.7 1566.17,-72.63 1557.31,-78.45 1562.87,-82.7"/>
</g>
<!-- vpn2&#45;gateway -->
<g id="node14" class="node">
<title>vpn2&#45;gateway</title>
<ellipse fill="#e6e6e6" stroke="black" stroke-width="2" cx="1242.39" cy="-252" rx="134.24" ry="36"/>
<text text-anchor="middle" x="1242.39" y="-256.2" font-family="Arial" font-size="14.00">vpn2&#45;gateway</text>
<text text-anchor="middle" x="1242.39" y="-239.4" font-family="Arial" font-size="14.00">(google_compute_vpn_gateway)</text>
</g>
<!-- vpn2&#45;gateway&#45;&gt;vpn&#45;vpc2 -->
<g id="edge13" class="edge">
<title>vpn2&#45;gateway&#45;&gt;vpn&#45;vpc2</title>
<path fill="none" stroke="black" d="M1136.82,-229.47C1112.12,-224.75 1085.87,-219.97 1061.39,-216 940.15,-196.33 907.64,-205 787.39,-180 777.41,-177.92 767.05,-175.46 756.78,-172.8"/>
<polygon fill="black" stroke="black" points="757.71,-169.43 747.15,-170.25 755.92,-176.2 757.71,-169.43"/>
</g>
<!-- vpn2&#45;gateway&#45;&gt;vpn2&#45;static&#45;ip -->
<g id="edge14" class="edge">
<title>vpn2&#45;gateway&#45;&gt;vpn2&#45;static&#45;ip</title>
<path fill="none" stroke="black" d="M1243.06,-215.7C1243.2,-207.93 1243.36,-199.57 1243.51,-191.43"/>
<polygon fill="black" stroke="black" points="1247.01,-191.72 1243.7,-181.66 1240.01,-191.59 1247.01,-191.72"/>
</g>
<!-- vpn1&#45;tunnel -->
<g id="node15" class="node">
<title>vpn1&#45;tunnel</title>
<ellipse fill="#e6e6e6" stroke="black" stroke-width="2" cx="1520.39" cy="-252" rx="125.67" ry="36"/>
<text text-anchor="middle" x="1520.39" y="-256.2" font-family="Arial" font-size="14.00">vpn1&#45;tunnel</text>
<text text-anchor="middle" x="1520.39" y="-239.4" font-family="Arial" font-size="14.00">(google_compute_vpn_tunnel)</text>
</g>
<!-- vpn1&#45;tunnel&#45;&gt;vpn2&#45;static&#45;ip -->
<g id="edge16" class="edge">
<title>vpn1&#45;tunnel&#45;&gt;vpn2&#45;static&#45;ip</title>
<path fill="none" stroke="black" d="M1446.43,-222.59C1409.35,-208.36 1364.36,-191.08 1326.25,-176.44"/>
<polygon fill="black" stroke="black" points="1327.7,-173.25 1317.11,-172.93 1325.19,-179.78 1327.7,-173.25"/>
</g>
<!-- vpn1&#45;tunnel&#45;&gt;vpn1&#45;gateway -->
<g id="edge15" class="edge">
<title>vpn1&#45;tunnel&#45;&gt;vpn1&#45;gateway</title>
<path fill="none" stroke="black" d="M1517.73,-215.7C1517.14,-207.93 1516.51,-199.57 1515.89,-191.43"/>
<polygon fill="black" stroke="black" points="1519.4,-191.36 1515.16,-181.65 1512.42,-191.89 1519.4,-191.36"/>
</g>
<!-- vpn2&#45;tunnel -->
<g id="node16" class="node">
<title>vpn2&#45;tunnel</title>
<ellipse fill="#e6e6e6" stroke="black" stroke-width="2" cx="1415.39" cy="-360" rx="125.67" ry="36"/>
<text text-anchor="middle" x="1415.39" y="-364.2" font-family="Arial" font-size="14.00">vpn2&#45;tunnel</text>
<text text-anchor="middle" x="1415.39" y="-347.4" font-family="Arial" font-size="14.00">(google_compute_vpn_tunnel)</text>
</g>
<!-- vpn2&#45;tunnel&#45;&gt;vpn1&#45;static&#45;ip -->
<g id="edge18" class="edge">
<title>vpn2&#45;tunnel&#45;&gt;vpn1&#45;static&#45;ip</title>
<path fill="none" stroke="black" d="M1521.6,-340.49C1577.81,-328.31 1638.62,-310.45 1655.39,-288 1703.27,-223.91 1683.49,-182.9 1655.39,-108 1651.55,-97.77 1645.49,-88.04 1638.64,-79.25"/>
<polygon fill="black" stroke="black" points="1641.34,-77.03 1632.24,-71.61 1635.98,-81.52 1641.34,-77.03"/>
</g>
<!-- vpn2&#45;tunnel&#45;&gt;vpn2&#45;gateway -->
<g id="edge17" class="edge">
<title>vpn2&#45;tunnel&#45;&gt;vpn2&#45;gateway</title>
<path fill="none" stroke="black" d="M1363.01,-326.91C1344.81,-315.75 1324.2,-303.12 1305.23,-291.5"/>
<polygon fill="black" stroke="black" points="1307.13,-288.56 1296.77,-286.32 1303.47,-294.53 1307.13,-288.56"/>
</g>
<!-- route&#45;to&#45;vpc2 -->
<g id="node17" class="node">
<title>route&#45;to&#45;vpc2</title>
<ellipse fill="#e6e6e6" stroke="black" stroke-width="2" cx="1168.39" cy="-360" rx="103.25" ry="36"/>
<text text-anchor="middle" x="1168.39" y="-364.2" font-family="Arial" font-size="14.00">route&#45;to&#45;vpc2</text>
<text text-anchor="middle" x="1168.39" y="-347.4" font-family="Arial" font-size="14.00">(google_compute_route)</text>
</g>
<!-- route&#45;to&#45;vpc2&#45;&gt;vpn&#45;vpc1 -->
<g id="edge19" class="edge">
<title>route&#45;to&#45;vpc2&#45;&gt;vpn&#45;vpc1</title>
<path fill="none" stroke="black" d="M1129.23,-326.46C1118.07,-315.33 1106.91,-302.11 1099.39,-288 1060.94,-215.84 1110.9,-173.07 1061.39,-108 1048.6,-91.19 1030.7,-78 1012.05,-67.8"/>
<polygon fill="black" stroke="black" points="1013.78,-64.75 1003.28,-63.28 1010.56,-70.97 1013.78,-64.75"/>
</g>
<!-- route&#45;to&#45;vpc2&#45;&gt;vpn1&#45;tunnel -->
<g id="edge20" class="edge">
<title>route&#45;to&#45;vpc2&#45;&gt;vpn1&#45;tunnel</title>
<path fill="none" stroke="black" d="M1244.25,-335.12C1256.33,-331.37 1268.7,-327.56 1280.39,-324 1327.05,-309.81 1378.93,-294.41 1422.48,-281.6"/>
<polygon fill="black" stroke="black" points="1423.31,-285 1431.91,-278.82 1421.33,-278.29 1423.31,-285"/>
</g>
<!-- route&#45;to&#45;vpc1 -->
<g id="node18" class="node">
<title>route&#45;to&#45;vpc1</title>
<ellipse fill="#e6e6e6" stroke="black" stroke-width="2" cx="1106.39" cy="-468" rx="103.25" ry="36"/>
<text text-anchor="middle" x="1106.39" y="-472.2" font-family="Arial" font-size="14.00">route&#45;to&#45;vpc1</text>
<text text-anchor="middle" x="1106.39" y="-455.4" font-family="Arial" font-size="14.00">(google_compute_route)</text>
</g>
<!-- route&#45;to&#45;vpc1&#45;&gt;vpn&#45;vpc2 -->
<g id="edge21" class="edge">
<title>route&#45;to&#45;vpc1&#45;&gt;vpn&#45;vpc2</title>
<path fill="none" stroke="black" d="M1010.05,-454.48C936.73,-442.98 844.02,-423.52 817.39,-396 760.53,-337.24 826.29,-282.97 779.39,-216 769.41,-201.74 755.55,-189.76 740.93,-179.95"/>
<polygon fill="black" stroke="black" points="742.85,-177.01 732.53,-174.61 739.1,-182.93 742.85,-177.01"/>
</g>
<!-- route&#45;to&#45;vpc1&#45;&gt;vpn2&#45;tunnel -->
<g id="edge22" class="edge">
<title>route&#45;to&#45;vpc1&#45;&gt;vpn2&#45;tunnel</title>
<path fill="none" stroke="black" d="M1179.23,-442.01C1222.93,-427.02 1278.86,-407.84 1325.32,-391.9"/>
<polygon fill="black" stroke="black" points="1326.24,-395.28 1334.56,-388.73 1323.97,-388.66 1326.24,-395.28"/>
</g>
</g>
</svg>
